Gallery: 
 
http://imagedomino.com/?g=826670

Studio
Digital Playground
Starring
Erik Everhard, Manuel Ferrara, Riley Steele, Charles Dera, Andy San Dimas, Marcus London, Vicki Chase, BiBi Jones
Genre
Feature

Beautiful Riley Steele and ultra sexy BiBi Jones team up to host a naughty girls-only slumber party. Their hung studs Manuel Ferrara Marcus London and Erik Everhard gather for a game of cards but curiosity gets the best of the guys 

Duration                         : 56mn 58s
Bit rate                         : 1 584 Kbps
Width                            : 624 pixels
Height                           : 352 pixels
Display aspect ratio             : 16:9
Frame rate                       : 23.976 fps
Color space                      : YUV
Chroma subsampling               : 4:2:0
Bit depth                        : 8 bits
Scan type                        : Progressive
Compression mode                 : Lossy
Bits/(Pixel*Frame)               : 0.301
Stream size                      : 646 MiB (92%)

Duration                         : 57mn 31s
Bit rate                         : 1 562 Kbps
Width                            : 624 pixels
Height                           : 352 pixels
Display aspect ratio             : 16:9
Frame rate                       : 23.976 fps
Color space                      : YUV
Chroma subsampling               : 4:2:0
Bit depth                        : 8 bits
Scan type                        : Progressive
Compression mode                 : Lossy
Bits/(Pixel*Frame)               : 0.297
Stream size                      : 643 MiB (92%)